<svg width="128" height="33" viewBox="0 0 128 33" fill="none" xmlns="http://www.w3.org/2000/svg">
<path d="M8.91887 1.7962L12.7996 16.207V0.363468C13.1074 0.292018 13.4184 0.229095 13.7324 0.17496V16.2085L18.0973 0C18.4118 0.0283343 18.7239 0.0654086 19.0331 0.110977L14.6331 16.45L23.3792 1.37703C23.6641 1.50457 23.9448 1.63988 24.2209 1.7827L15.4421 16.9119L27.9749 4.4418C28.2009 4.65441 28.4208 4.87327 28.6345 5.09811L16.0998 17.5701L31.3069 8.83417C31.4504 9.10892 31.5864 9.38819 31.7145 9.67172L16.5695 18.372L32.9862 13.9951C33.032 14.3028 33.0692 14.6133 33.0977 14.9263L16.808 19.2693L32.9216 19.2693C32.8672 19.5817 32.8039 19.8912 32.7321 20.1974L16.8055 20.1974L31.2915 24.0595C31.1427 24.3429 30.9859 24.6216 30.8214 24.895L16.5682 21.095L28.4729 27.9338C28.2475 28.1644 28.0154 28.3885 27.7769 28.6057L16.1028 21.8994L24.9364 30.6888C24.657 30.8513 24.3724 31.0058 24.0829 31.1521L15.4423 22.5547L21.1037 32.3115C20.7937 32.3987 20.4801 32.4772 20.163 32.5466L14.6336 23.0173L17.2996 32.917C17.0619 32.927 16.823 32.9321 16.5829 32.9321C16.501 32.9321 16.4191 32.9315 16.3375 32.9304L13.7324 23.2568V32.6893C13.4184 32.6351 13.1073 32.5722 12.7996 32.5008V23.2583L10.5027 31.7877C10.2097 31.6728 9.92083 31.5498 9.63629 31.419L11.8983 23.0194L7.65207 30.3373C7.38919 30.1698 7.13137 29.9951 6.8789 29.8135L11.0917 22.5532L5.19195 28.4234C4.96598 28.2108 4.74602 27.992 4.53234 27.7672L10.4303 21.8988L3.13552 26.0893C2.95299 25.8381 2.7774 25.5816 2.60902 25.3201L9.96714 21.0931L1.52111 23.3449C1.38965 23.0618 1.26601 22.7743 1.15047 22.4828L9.72273 20.1974L0.433725 20.1974C0.361899 19.8912 0.298641 19.5817 0.244217 19.2693L9.72022 19.2693L0.00180728 16.6782C0.000603817 16.5963 0 16.5143 0 16.4321C0 16.1938 0.00507625 15.9567 0.015127 15.7209L9.96578 18.3739L0.387152 12.8713C0.456898 12.5558 0.535719 12.2437 0.623327 11.9353L10.4332 17.5707L1.78895 8.96965C1.93601 8.68158 2.09133 8.39839 2.25458 8.12038L11.0918 16.9134L4.34907 5.29303C4.56741 5.05576 4.79262 4.82486 5.0244 4.60065L11.8988 16.448L8.07911 2.26385C8.35397 2.10018 8.63399 1.94419 8.91887 1.7962Z" fill="#0796D3"/>
<path d="M39.7249 26V9.45809H49.1518V12.3423H42.9346V16.6405H48.153V19.5246H42.9346V26H39.7249ZM55.717 26.1796C54.5723 26.1796 53.5323 25.9177 52.5971 25.394C51.6694 24.8628 50.9287 24.1296 50.3751 23.1944C49.8289 22.2592 49.5558 21.1818 49.5558 19.9623C49.5558 18.7428 49.8289 17.6729 50.3751 16.7527C50.9287 15.825 51.6694 15.103 52.5971 14.5868C53.5323 14.063 54.5723 13.8012 55.717 13.8012C56.8841 13.8012 57.9315 14.063 58.8592 14.5868C59.787 15.103 60.5202 15.825 61.0589 16.7527C61.605 17.6729 61.8781 18.7428 61.8781 19.9623C61.8781 21.1818 61.605 22.2592 61.0589 23.1944C60.5127 24.1296 59.7757 24.8628 58.848 25.394C57.9203 25.9177 56.8766 26.1796 55.717 26.1796ZM55.717 23.4974C56.323 23.4974 56.8654 23.3515 57.3442 23.0597C57.823 22.7604 58.2009 22.3452 58.4777 21.814C58.7545 21.2828 58.8929 20.6656 58.8929 19.9623C58.8929 19.274 58.7582 18.6717 58.4889 18.1555C58.2196 17.6318 57.8455 17.224 57.3667 16.9322C56.8953 16.633 56.3492 16.4833 55.7282 16.4833C55.1222 16.4833 54.5797 16.6292 54.1009 16.921C53.6221 17.2053 53.2443 17.6093 52.9675 18.1331C52.6906 18.6568 52.5522 19.2665 52.5522 19.9623C52.5522 20.6656 52.6906 21.2828 52.9675 21.814C53.2443 22.3452 53.6184 22.7604 54.0897 23.0597C54.5685 23.3515 55.1109 23.4974 55.717 23.4974ZM69.6216 26.1347C68.7388 26.1347 67.912 25.9776 67.1414 25.6633C66.3783 25.3491 65.705 24.9114 65.1214 24.3503C64.5453 23.7892 64.0927 23.1345 63.7635 22.3864C63.4343 21.6307 63.2697 20.8115 63.2697 19.9286C63.2697 19.0533 63.4305 18.2453 63.7522 17.5046C64.0814 16.7564 64.5341 16.1055 65.1102 15.5519C65.6862 14.9908 66.3484 14.5568 67.0965 14.2501C67.8522 13.9433 68.6565 13.79 69.5094 13.79C70.1977 13.79 70.8673 13.891 71.5182 14.093C72.1691 14.2875 72.7452 14.5606 73.2464 14.9122L72.1018 17.426C71.8923 17.239 71.6529 17.0744 71.3835 16.9322C71.1142 16.7901 70.8261 16.6816 70.5194 16.6068C70.2201 16.532 69.9096 16.4946 69.5879 16.4946C68.9295 16.4946 68.3497 16.6479 67.8484 16.9547C67.3472 17.2614 66.9581 17.6767 66.6813 18.2004C66.4045 18.7166 66.2661 19.2964 66.2661 19.9399C66.2661 20.5908 66.4082 21.1818 66.6925 21.713C66.9768 22.2367 67.3696 22.6557 67.8709 22.9699C68.3722 23.2767 68.9445 23.4301 69.5879 23.4301C70.1116 23.4301 70.6092 23.3403 71.0805 23.1607C71.5519 22.9737 71.9072 22.7642 72.1466 22.5323L73.2689 25.1022C72.835 25.3865 72.3 25.6297 71.6641 25.8317C71.0356 26.0337 70.3548 26.1347 69.6216 26.1347ZM79.3178 26.1796C78.4724 26.1796 77.7092 26 77.0284 25.6409C76.3551 25.2818 75.8201 24.7543 75.4236 24.0585C75.0271 23.3627 74.8288 22.5098 74.8288 21.4998V13.9807H77.9262V21.1295C77.9262 21.915 78.1357 22.5098 78.5547 22.9138C78.9736 23.3103 79.4824 23.5086 80.0809 23.5086C80.5298 23.5086 80.9226 23.4114 81.2593 23.2168C81.6034 23.0148 81.8728 22.7343 82.0673 22.3751C82.2618 22.016 82.3591 21.6008 82.3591 21.1295V13.9807H85.4565V22.016C85.4565 22.4724 85.5201 22.8091 85.6473 23.026C85.7745 23.2355 86.0326 23.4114 86.4216 23.5535L85.3106 26.1796C84.5175 25.9401 83.9228 25.6297 83.5262 25.2481C83.1297 24.8665 82.9277 24.4064 82.9202 23.8677L83.717 24.5635H82.2132L83.6946 23.6433C83.2531 24.3615 82.6621 24.9638 81.9214 25.4501C81.1882 25.9364 80.3203 26.1796 79.3178 26.1796ZM92.1226 26.1796C91.3894 26.1796 90.7011 26.0486 90.0577 25.7868C89.4218 25.5249 88.8681 25.1733 88.3968 24.7319C87.9329 24.283 87.5962 23.7854 87.3868 23.2393L89.923 22.117C90.1026 22.521 90.3906 22.8839 90.7872 23.2056C91.1837 23.5273 91.6288 23.6882 92.1226 23.6882C92.4219 23.6882 92.6875 23.6321 92.9194 23.5198C93.1588 23.4076 93.3459 23.2617 93.4806 23.0822C93.6227 22.8951 93.6938 22.7006 93.6938 22.4986C93.6938 22.2442 93.5965 22.0272 93.402 21.8477C93.215 21.6606 92.9755 21.5035 92.6838 21.3763C92.3995 21.2492 92.1039 21.1407 91.7972 21.0509C91.4979 20.9611 91.2398 20.8826 91.0228 20.8152C90.4842 20.6506 89.9642 20.4224 89.4629 20.1307C88.9616 19.8389 88.5501 19.461 88.2284 18.9972C87.9067 18.5333 87.7459 17.9647 87.7459 17.2914C87.7459 16.5956 87.9254 15.9858 88.2846 15.4621C88.6512 14.9309 89.1449 14.5194 89.7659 14.2276C90.3869 13.9359 91.0827 13.79 91.8533 13.79C92.8783 13.79 93.7798 14.0331 94.5579 14.5194C95.336 14.9982 95.8859 15.593 96.2076 16.3038L93.7387 17.3363C93.604 17.1118 93.3908 16.8724 93.099 16.618C92.8147 16.3636 92.4369 16.2365 91.9655 16.2365C91.5765 16.2365 91.251 16.3375 90.9892 16.5395C90.7273 16.734 90.5964 16.9996 90.5964 17.3363C90.5964 17.628 90.6936 17.8637 90.8882 18.0433C91.0902 18.2228 91.3707 18.3799 91.7298 18.5146C92.089 18.6493 92.5117 18.7952 92.998 18.9523C93.3197 19.0496 93.6788 19.1805 94.0753 19.3451C94.4794 19.5022 94.8647 19.7117 95.2313 19.9735C95.6053 20.2354 95.9121 20.5683 96.1515 20.9723C96.3984 21.3689 96.5218 21.8552 96.5218 22.4313C96.5218 23.1645 96.3198 23.8154 95.9158 24.384C95.5118 24.9451 94.9769 25.3865 94.311 25.7082C93.6451 26.0224 92.9157 26.1796 92.1226 26.1796ZM98.4633 26V13.9807H101.561V26H98.4633ZM100.001 12.4545C99.4546 12.4545 98.9908 12.2637 98.6092 11.8821C98.2277 11.4931 98.0369 11.0255 98.0369 10.4793C98.0369 9.92569 98.2277 9.46183 98.6092 9.08775C98.9908 8.70618 99.4546 8.5154 100.001 8.5154C100.554 8.5154 101.018 8.70618 101.392 9.08775C101.774 9.46183 101.965 9.92569 101.965 10.4793C101.965 11.0255 101.774 11.4931 101.392 11.8821C101.018 12.2637 100.554 12.4545 100.001 12.4545ZM104.479 26V9.45809H113.905V12.3423H107.688V16.6405H112.907V19.5246H107.688V26H104.479ZM117.317 30.893C116.861 30.893 116.408 30.8481 115.959 30.7583C115.51 30.6685 115.155 30.5713 114.893 30.4665L115.97 27.9303C116.165 28.0275 116.374 28.1023 116.599 28.1547C116.823 28.2146 117.029 28.2445 117.216 28.2445C117.613 28.252 117.931 28.1659 118.17 27.9864C118.417 27.8143 118.604 27.6086 118.731 27.3691C118.866 27.1297 118.959 26.9128 119.012 26.7182L119.573 24.9002L119.404 26.5611L114.242 13.9807H117.519L119.943 20.8377L120.594 22.7904H120.684L121.29 20.8377L123.512 13.9807H126.766L121.66 27.4365C121.54 27.7582 121.383 28.1173 121.189 28.5138C121.002 28.9104 120.751 29.2882 120.437 29.6473C120.13 30.0064 119.722 30.3019 119.214 30.5339C118.712 30.7733 118.08 30.893 117.317 30.893Z" fill="white"/>
</svg>
