<svg width="127" height="33" viewBox="0 0 127 33" fill="none" xmlns="http://www.w3.org/2000/svg">
<path d="M8.91887 1.7962L12.7996 16.207V0.363468C13.1074 0.292018 13.4184 0.229095 13.7324 0.17496V16.2085L18.0973 0C18.4118 0.0283343 18.7239 0.0654086 19.0331 0.110977L14.6331 16.45L23.3792 1.37703C23.6641 1.50457 23.9448 1.63988 24.2209 1.7827L15.4421 16.9119L27.9749 4.4418C28.2009 4.65441 28.4208 4.87327 28.6345 5.09811L16.0998 17.5701L31.3069 8.83417C31.4504 9.10892 31.5864 9.38819 31.7145 9.67172L16.5695 18.372L32.9862 13.9951C33.032 14.3028 33.0692 14.6133 33.0977 14.9263L16.808 19.2693L32.9216 19.2693C32.8672 19.5817 32.8039 19.8912 32.7321 20.1974L16.8055 20.1974L31.2915 24.0595C31.1427 24.3429 30.9859 24.6216 30.8214 24.895L16.5682 21.095L28.4729 27.9338C28.2475 28.1644 28.0154 28.3885 27.7769 28.6057L16.1028 21.8994L24.9364 30.6888C24.657 30.8513 24.3724 31.0058 24.0829 31.1521L15.4423 22.5547L21.1037 32.3115C20.7937 32.3987 20.4801 32.4772 20.163 32.5466L14.6336 23.0173L17.2996 32.917C17.0619 32.927 16.823 32.9321 16.5829 32.9321C16.501 32.9321 16.4191 32.9315 16.3375 32.9304L13.7324 23.2568V32.6893C13.4184 32.6351 13.1073 32.5722 12.7996 32.5008V23.2583L10.5027 31.7877C10.2097 31.6728 9.92083 31.5498 9.63629 31.419L11.8983 23.0194L7.65207 30.3373C7.38919 30.1698 7.13137 29.9951 6.8789 29.8135L11.0917 22.5532L5.19195 28.4234C4.96598 28.2108 4.74602 27.992 4.53234 27.7672L10.4303 21.8988L3.13552 26.0893C2.95299 25.8381 2.7774 25.5816 2.60902 25.3201L9.96714 21.0931L1.52111 23.3449C1.38965 23.0618 1.26601 22.7743 1.15047 22.4828L9.72273 20.1974L0.433725 20.1974C0.361899 19.8912 0.298641 19.5817 0.244217 19.2693L9.72022 19.2693L0.00180728 16.6782C0.000603817 16.5963 0 16.5143 0 16.4321C0 16.1938 0.00507625 15.9567 0.015127 15.7209L9.96578 18.3739L0.387152 12.8713C0.456898 12.5558 0.535719 12.2437 0.623327 11.9353L10.4332 17.5707L1.78895 8.96965C1.93601 8.68158 2.09133 8.39839 2.25458 8.12038L11.0918 16.9134L4.34907 5.29303C4.56741 5.05576 4.79262 4.82486 5.0244 4.60065L11.8988 16.448L8.07911 2.26385C8.35397 2.10018 8.63399 1.94419 8.91887 1.7962Z" fill="#0796D3"/>
<path d="M39.6273 26V9.45809H49.0541V12.3423H42.8369V16.6405H48.0553V19.5246H42.8369V26H39.6273ZM55.6193 26.1796C54.4746 26.1796 53.4346 25.9177 52.4994 25.394C51.5717 24.8628 50.831 24.1296 50.2774 23.1944C49.7312 22.2592 49.4581 21.1818 49.4581 19.9623C49.4581 18.7428 49.7312 17.6729 50.2774 16.7527C50.831 15.825 51.5717 15.103 52.4994 14.5868C53.4346 14.063 54.4746 13.8012 55.6193 13.8012C56.7864 13.8012 57.8338 14.063 58.7616 14.5868C59.6893 15.103 60.4225 15.825 60.9612 16.7527C61.5073 17.6729 61.7804 18.7428 61.7804 19.9623C61.7804 21.1818 61.5073 22.2592 60.9612 23.1944C60.415 24.1296 59.6781 24.8628 58.7503 25.394C57.8226 25.9177 56.7789 26.1796 55.6193 26.1796ZM55.6193 23.4974C56.2253 23.4974 56.7677 23.3515 57.2465 23.0597C57.7254 22.7604 58.1032 22.3452 58.38 21.814C58.6568 21.2828 58.7952 20.6656 58.7952 19.9623C58.7952 19.274 58.6606 18.6717 58.3912 18.1555C58.1219 17.6318 57.7478 17.224 57.269 16.9322C56.7976 16.633 56.2515 16.4833 55.6305 16.4833C55.0245 16.4833 54.4821 16.6292 54.0032 16.921C53.5244 17.2053 53.1466 17.6093 52.8698 18.1331C52.5929 18.6568 52.4545 19.2665 52.4545 19.9623C52.4545 20.6656 52.5929 21.2828 52.8698 21.814C53.1466 22.3452 53.5207 22.7604 53.992 23.0597C54.4708 23.3515 55.0133 23.4974 55.6193 23.4974ZM69.5239 26.1347C68.6411 26.1347 67.8143 25.9776 67.0437 25.6633C66.2806 25.3491 65.6073 24.9114 65.0237 24.3503C64.4476 23.7892 63.995 23.1345 63.6658 22.3864C63.3366 21.6307 63.172 20.8115 63.172 19.9286C63.172 19.0533 63.3328 18.2453 63.6546 17.5046C63.9837 16.7564 64.4364 16.1055 65.0125 15.5519C65.5886 14.9908 66.2507 14.5568 66.9988 14.2501C67.7545 13.9433 68.5588 13.79 69.4117 13.79C70.1 13.79 70.7696 13.891 71.4205 14.093C72.0714 14.2875 72.6475 14.5606 73.1488 14.9122L72.0041 17.426C71.7946 17.239 71.5552 17.0744 71.2858 16.9322C71.0165 16.7901 70.7284 16.6816 70.4217 16.6068C70.1224 16.532 69.8119 16.4946 69.4902 16.4946C68.8319 16.4946 68.252 16.6479 67.7508 16.9547C67.2495 17.2614 66.8604 17.6767 66.5836 18.2004C66.3068 18.7166 66.1684 19.2964 66.1684 19.9399C66.1684 20.5908 66.3105 21.1818 66.5948 21.713C66.8791 22.2367 67.2719 22.6557 67.7732 22.9699C68.2745 23.2767 68.8468 23.4301 69.4902 23.4301C70.014 23.4301 70.5115 23.3403 70.9828 23.1607C71.4542 22.9737 71.8095 22.7642 72.049 22.5323L73.1712 25.1022C72.7373 25.3865 72.2023 25.6297 71.5664 25.8317C70.9379 26.0337 70.2571 26.1347 69.5239 26.1347ZM79.2201 26.1796C78.3747 26.1796 77.6116 26 76.9307 25.6409C76.2574 25.2818 75.7224 24.7543 75.3259 24.0585C74.9294 23.3627 74.7311 22.5098 74.7311 21.4998V13.9807H77.8285V21.1295C77.8285 21.915 78.038 22.5098 78.457 22.9138C78.876 23.3103 79.3847 23.5086 79.9832 23.5086C80.4321 23.5086 80.8249 23.4114 81.1616 23.2168C81.5058 23.0148 81.7751 22.7343 81.9696 22.3751C82.1641 22.016 82.2614 21.6008 82.2614 21.1295V13.9807H85.3588V22.016C85.3588 22.4724 85.4224 22.8091 85.5496 23.026C85.6768 23.2355 85.9349 23.4114 86.3239 23.5535L85.2129 26.1796C84.4199 25.9401 83.8251 25.6297 83.4285 25.2481C83.032 24.8665 82.83 24.4064 82.8225 23.8677L83.6193 24.5635H82.1155L83.5969 23.6433C83.1555 24.3615 82.5644 24.9638 81.8237 25.4501C81.0905 25.9364 80.2227 26.1796 79.2201 26.1796ZM92.0249 26.1796C91.2917 26.1796 90.6034 26.0486 89.96 25.7868C89.3241 25.5249 88.7704 25.1733 88.2991 24.7319C87.8352 24.283 87.4986 23.7854 87.2891 23.2393L89.8253 22.117C90.0049 22.521 90.2929 22.8839 90.6895 23.2056C91.086 23.5273 91.5312 23.6882 92.0249 23.6882C92.3242 23.6882 92.5898 23.6321 92.8217 23.5198C93.0612 23.4076 93.2482 23.2617 93.3829 23.0822C93.525 22.8951 93.5961 22.7006 93.5961 22.4986C93.5961 22.2442 93.4988 22.0272 93.3043 21.8477C93.1173 21.6606 92.8779 21.5035 92.5861 21.3763C92.3018 21.2492 92.0062 21.1407 91.6995 21.0509C91.4002 20.9611 91.1421 20.8826 90.9251 20.8152C90.3865 20.6506 89.8665 20.4224 89.3652 20.1307C88.864 19.8389 88.4525 19.461 88.1308 18.9972C87.809 18.5333 87.6482 17.9647 87.6482 17.2914C87.6482 16.5956 87.8277 15.9858 88.1869 15.4621C88.5535 14.9309 89.0473 14.5194 89.6682 14.2276C90.2892 13.9359 90.985 13.79 91.7556 13.79C92.7806 13.79 93.6821 14.0331 94.4602 14.5194C95.2383 14.9982 95.7882 15.593 96.1099 16.3038L93.641 17.3363C93.5063 17.1118 93.2931 16.8724 93.0013 16.618C92.717 16.3636 92.3392 16.2365 91.8678 16.2365C91.4788 16.2365 91.1533 16.3375 90.8915 16.5395C90.6296 16.734 90.4987 16.9996 90.4987 17.3363C90.4987 17.628 90.596 17.8637 90.7905 18.0433C90.9925 18.2228 91.273 18.3799 91.6322 18.5146C91.9913 18.6493 92.414 18.7952 92.9003 18.9523C93.222 19.0496 93.5811 19.1805 93.9777 19.3451C94.3817 19.5022 94.767 19.7117 95.1336 19.9735C95.5077 20.2354 95.8144 20.5683 96.0538 20.9723C96.3007 21.3689 96.4242 21.8552 96.4242 22.4313C96.4242 23.1645 96.2221 23.8154 95.8181 24.384C95.4141 24.9451 94.8792 25.3865 94.2133 25.7082C93.5475 26.0224 92.818 26.1796 92.0249 26.1796ZM98.3656 26V13.9807H101.463V26H98.3656ZM99.9031 12.4545C99.357 12.4545 98.8931 12.2637 98.5115 11.8821C98.13 11.4931 97.9392 11.0255 97.9392 10.4793C97.9392 9.92569 98.13 9.46183 98.5115 9.08775C98.8931 8.70618 99.357 8.5154 99.9031 8.5154C100.457 8.5154 100.921 8.70618 101.295 9.08775C101.676 9.46183 101.867 9.92569 101.867 10.4793C101.867 11.0255 101.676 11.4931 101.295 11.8821C100.921 12.2637 100.457 12.4545 99.9031 12.4545ZM104.381 26V9.45809H113.808V12.3423H107.591V16.6405H112.809V19.5246H107.591V26H104.381ZM117.219 30.893C116.763 30.893 116.31 30.8481 115.861 30.7583C115.413 30.6685 115.057 30.5713 114.795 30.4665L115.873 27.9303C116.067 28.0275 116.277 28.1023 116.501 28.1547C116.726 28.2146 116.931 28.2445 117.118 28.2445C117.515 28.252 117.833 28.1659 118.072 27.9864C118.319 27.8143 118.506 27.6086 118.633 27.3691C118.768 27.1297 118.862 26.9128 118.914 26.7182L119.475 24.9002L119.307 26.5611L114.144 13.9807H117.421L119.845 20.8377L120.496 22.7904H120.586L121.192 20.8377L123.414 13.9807H126.669L121.562 27.4365C121.443 27.7582 121.286 28.1173 121.091 28.5138C120.904 28.9104 120.653 29.2882 120.339 29.6473C120.032 30.0064 119.625 30.3019 119.116 30.5339C118.615 30.7733 117.983 30.893 117.219 30.893Z" fill="black"/>
</svg>
