<svg width="34" height="34" viewBox="0 0 34 34" fill="none" xmlns="http://www.w3.org/2000/svg">
<path d="M8.91877 2.36456L12.7995 16.7754V0.931827C13.1073 0.860378 13.4183 0.797454 13.7323 0.74332V16.7768L18.0972 0.568359C18.4118 0.596694 18.7238 0.633768 19.033 0.679336L14.633 17.0184L23.3791 1.94539C23.664 2.07293 23.9447 2.20824 24.2208 2.35106L15.442 17.4803L27.9748 5.01016C28.2008 5.22277 28.4207 5.44163 28.6344 5.66647L16.0998 18.1384L31.3068 9.40253C31.4503 9.67728 31.5863 9.95655 31.7144 10.2401L16.5694 18.9403L32.9861 14.5635C33.0319 14.8712 33.0691 15.1816 33.0976 15.4946L16.8079 19.8376L32.9215 19.8376C32.8671 20.1501 32.8038 20.4596 32.732 20.7657L16.8054 20.7657L31.2914 24.6279C31.1426 24.9113 30.9858 25.1899 30.8213 25.4634L16.5681 21.6633L28.4728 28.5022C28.2474 28.7328 28.0153 28.9569 27.7769 29.1741L16.1027 22.4677L24.9363 31.2572C24.6569 31.4196 24.3723 31.5741 24.0828 31.7205L15.4422 23.1231L21.1036 32.8799C20.7936 32.9671 20.48 33.0455 20.1629 33.115L14.6335 23.5857L17.2995 33.4854C17.0618 33.4954 16.8229 33.5005 16.5828 33.5005C16.5009 33.5005 16.419 33.4999 16.3374 33.4987L13.7323 23.8251V33.2576C13.4183 33.2035 13.1073 33.1406 12.7995 33.0691V23.8267L10.5026 32.3561C10.2096 32.2412 9.92073 32.1182 9.6362 31.9874L11.8982 23.5877L7.65197 30.9056C7.38909 30.7381 7.13128 30.5634 6.8788 30.3819L11.0916 23.1215L5.19186 28.9918C4.96589 28.7792 4.74592 28.5604 4.53225 28.3355L10.4302 22.4671L3.13543 26.6577C2.9529 26.4065 2.7773 26.15 2.60892 25.8884L9.96704 21.6614L1.52101 23.9132C1.38955 23.6301 1.26592 23.3427 1.15038 23.0512L9.72264 20.7657L0.433632 20.7657C0.361805 20.4596 0.298547 20.1501 0.244123 19.8376L9.72013 19.8376L0.00171382 17.2466C0.000510357 17.1647 -9.34601e-05 17.0827 -9.34601e-05 17.0005C-9.34601e-05 16.7622 0.00498279 16.5251 0.0150335 16.2893L9.96569 18.9422L0.387058 13.4396C0.456805 13.1242 0.535625 12.8121 0.623233 12.5036L10.4331 18.139L1.78886 9.53801C1.93592 9.24994 2.09123 8.96675 2.25448 8.68874L11.0917 17.4818L4.34898 5.86139C4.56731 5.62412 4.79253 5.39322 5.02431 5.16901L11.8987 17.0163L8.07902 2.83221C8.35388 2.66854 8.6339 2.51255 8.91877 2.36456Z" fill="#0796D3"/>
</svg>
